<svg width="603" height="113" viewBox="0 0 603 113" fill="none" xmlns="http://www.w3.org/2000/svg">
<path d="M12 0H7V113H12V0Z" fill="#E5E7EB"/>
<path d="M22 0H17V113H22V0Z" fill="#E5E7EB"/>
<path d="M47 0H27V113H47V0Z" fill="#E5E7EB"/>
<path d="M57 0H52V113H57V0Z" fill="#E5E7EB"/>
<path d="M67 0H62V113H67V0Z" fill="#E5E7EB"/>
<path d="M87 0H82V113H87V0Z" fill="#E5E7EB"/>
<path d="M107 0H97V113H107V0Z" fill="#E5E7EB"/>
<path d="M122 0H112V113H122V0Z" fill="#E5E7EB"/>
<path d="M132 0H127V113H132V0Z" fill="#E5E7EB"/>
<path d="M147 0H142V113H147V0Z" fill="#E5E7EB"/>
<path d="M157 0H152V113H157V0Z" fill="#E5E7EB"/>
<path d="M172 0H167V113H172V0Z" fill="#E5E7EB"/>
<path d="M192 0H187V113H192V0Z" fill="#E5E7EB"/>
<path d="M217 0H202V113H217V0Z" fill="#E5E7EB"/>
<path d="M227 0H222V113H227V0Z" fill="#E5E7EB"/>
<path d="M237 0H232V113H237V0Z" fill="#E5E7EB"/>
<path d="M247 0H242V113H247V0Z" fill="#E5E7EB"/>
<path d="M262 0H252V113H262V0Z" fill="#E5E7EB"/>
<path d="M282 0H277V113H282V0Z" fill="#E5E7EB"/>
<path d="M297 0H292V113H297V0Z" fill="#E5E7EB"/>
<path d="M312 0H307V113H312V0Z" fill="#E5E7EB"/>
<path d="M327 0H322V113H327V0Z" fill="#E5E7EB"/>
<path d="M337 0H332V113H337V0Z" fill="#E5E7EB"/>
<path d="M347 0H342V113H347V0Z" fill="#E5E7EB"/>
<path d="M372 0H367V113H372V0Z" fill="#E5E7EB"/>
<path d="M382 0H377V113H382V0Z" fill="#E5E7EB"/>
<path d="M407 0H402V113H407V0Z" fill="#E5E7EB"/>
<path d="M417 0H412V113H417V0Z" fill="#E5E7EB"/>
<path d="M437 0H432V113H437V0Z" fill="#E5E7EB"/>
<path d="M452 0H447V113H452V0Z" fill="#E5E7EB"/>
<path d="M472 0H457V113H472V0Z" fill="#E5E7EB"/>
<path d="M487 0H482V113H487V0Z" fill="#E5E7EB"/>
<path d="M497 0H492V113H497V0Z" fill="#E5E7EB"/>
<path d="M517 0H502V113H517V0Z" fill="#E5E7EB"/>
<path d="M527 0H522V113H527V0Z" fill="#E5E7EB"/>
<path d="M542 0H532V113H542V0Z" fill="#E5E7EB"/>
<path d="M552 0H547V113H552V0Z" fill="#E5E7EB"/>
<path d="M562 0H557V113H562V0Z" fill="#E5E7EB"/>
<path d="M587 0H567V113H587V0Z" fill="#E5E7EB"/>
<path d="M597 0H592V113H597V0Z" fill="#E5E7EB"/>
</svg>
